Coordinates
version=1
nRows=10
nColumns=22
inDegrees=yes

Units are S.I. units (second, meters, Newtons, ...)
If the header above contains a line with 'inDegrees', this indicates whether rotational values are in degrees (yes) or radians (no).

endheader
time	pelvis_tilt	pelvis_list	pelvis_rotation	pelvis_tx	pelvis_ty	pelvis_tz	hip_flexion_r	hip_adduction_r	hip_rotation_r	knee_angle_r	ankle_angle_r	subtalar_angle_r	hip_flexion_l	hip_adduction_l	hip_rotation_l	knee_angle_l	ankle_angle_l	subtalar_angle_l	lumbar_extension	lumbar_bending	lumbar_rotation
      2.98000000	      1.62633017	      1.08498842	      2.25223922	      0.27736732	      1.00568170	     -0.16649848	     25.04149743	     -3.53210652	     -3.05100303	    -40.63229640	      8.09425759	      2.62704533	      0.79369923	      6.43446233	     -3.80261319	    -16.50892408	     14.38722784	     -4.96880961	    -13.89629811	     -2.92220417	     -1.34024262
      2.99000000	      1.64851374	      1.13112786	      2.19591889	      0.28537809	      1.00522880	     -0.16627198	     25.48380940	     -3.40365626	     -3.14004969	    -38.61963011	      7.70136632	      2.61357029	      0.02506894	      6.46028574	     -3.87938751	    -16.07222224	     14.68872026	     -4.88580889	    -14.02486782	     -2.92544318	     -1.49368845
      3.00000000	      1.64101153	      1.17321749	      2.12796519	      0.29345729	      1.00463878	     -0.16596725	     25.90810637	     -3.24642042	     -3.27445528	    -36.57918136	      7.15062402	      2.71667832	     -0.69727304	      6.47485036	     -4.01052795	    -15.66750470	     15.00825967	     -4.77359111	    -14.10945605	     -2.93238386	     -1.62187199
      3.01000000	      1.68477595	      1.20609057	      2.04060339	      0.30165751	      1.00404661	     -0.16557179	     26.20317353	     -3.03761286	     -3.40707780	    -34.48501743	      6.59700400	      2.95284802	     -1.49027115	      6.47730362	     -4.13374141	    -15.24875683	     15.35460467	     -4.59386835	    -14.24125984	     -2.93060968	     -1.72974873
      3.02000000	      1.66764247	      1.23326322	      1.96029578	      0.30994182	      1.00326012	     -0.16514412	     26.51871337	     -2.82075753	     -3.63669428	    -32.38558912	      5.92963119	      3.29930252	     -2.19283438	      6.46929336	     -4.30785531	    -14.88541594	     15.68556652	     -4.45854060	    -14.28966385	     -2.92636959	     -1.82793703
      3.03000000	      1.70443630	      1.25771083	      1.87680723	      0.31835683	      1.00247577	     -0.16464761	     26.70093288	     -2.57008367	     -3.86813762	    -30.24843383	      5.37605103	      3.86602722	     -2.97106714	      6.45945460	     -4.43178259	    -14.50764597	     16.03149404	     -4.27142364	    -14.38949858	     -2.92236750	     -1.91857070
      3.04000000	      1.70128387	      1.28044064	      1.81649709	      0.32687090	      1.00153166	     -0.16415786	     26.87654121	     -2.32511769	     -4.19998629	    -28.12126800	      4.85343381	      4.53104802	     -3.68345795	      6.44455925	     -4.56800802	    -14.18538346	     16.36208323	     -4.12147828	    -14.43165034	     -2.91356310	     -2.01940381
      3.05000000	      1.69218401	      1.30710950	      1.78276260	      0.33550038	      1.00048611	     -0.16368442	     27.00430872	     -2.09029423	     -4.61300040	    -26.01297589	      4.45084332	      5.30215510	     -4.37613671	      6.43140140	     -4.68538289	    -13.90390745	     16.68503507	     -3.98318953	    -14.45646867	     -2.90296937	     -2.13883583
      3.06000000	      1.67793718	      1.33935686	      1.78546926	      0.34424523	      0.99934199	     -0.16324749	     27.08494072	     -1.87322119	     -5.10384859	    -23.94315160	      4.19198371	      6.13067126	     -5.04372477	      6.41992008	     -4.77173338	    -13.67513978	     17.00827858	     -3.85253332	    -14.46596251	     -2.88945690	     -2.28658728
      3.07000000	      1.66575076	      1.38211645	      1.82571607	      0.35311479	      0.99811484	     -0.16284521	     27.11964257	     -1.68338700	     -5.67365501	    -21.94618660	      4.07449339	      6.97364119	     -5.69504994	      6.41296377	     -4.82265268	    -13.49826542	     17.32854338	     -3.71955624	    -14.46948754	     -2.88049137	     -2.45974641
